PathFileType	4	(X/Y/Z)	DARI_DATA/Captury_Subj2_bilateral_squat03.trc
DataRate	CameraRate	NumFrames	NumMarkers	Units	OrigDataRate	OrigDataStartFrame	OrigNumFrames
60	60	4	47	mm	60.00239944458008	1	249
Frame#	Time		LeftUpLeg_		RightUpLeg_		LeftLeg_		RightLeg_		LeftFoot_		RightFoot_		LeftToeBase_		RightToeBase_		Knee_Lateral_r		Knee_Lateral_l		Ankle_Lateral_r		Ankle_Lateral_l		LeftArm_		LeftForeArm_		LeftHand_		LeftHandEE		RightArm_		RightForeArm_		RightHand_		RightHandEE		Spine_		Spine1_		Spine2_		Spine3_		Spine4_		Spine5_		Spine_x		Spine_y		Spine_z		RASI		LASI		RIPS		LIPS		RTHI		LTHI		RTIB		LTIB		RTOE		LTOE		RHEE		LHEE		RHipAngles		LHipAngles		RKneeAngles		LKneeAngles		RAnkleAngles		LAnkleAngles
			X1	Y1	Z1	X2	Y2	Z2	X3	Y3	Z3	X4	Y4	Z4	X5	Y5	Z5	X6	Y6	Z6	X7	Y7	Z7	X8	Y8	Z8	X9	Y9	Z9	X10	Y10	Z10	X11	Y11	Z11	X12	Y12	Z12	X13	Y13	Z13	X14	Y14	Z14	X15	Y15	Z15	X16	Y16	Z16	X17	Y17	Z17	X18	Y18	Z18	X19	Y19	Z19	X20	Y20	Z20	X21	Y21	Z21	X22	Y22	Z22	X23	Y23	Z23	X24	Y24	Z24	X25	Y25	Z25	X26	Y26	Z26	X27	Y27	Z27	X28	Y28	Z28	X29	Y29	Z29	X30	Y30	Z30	X31	Y31	Z31	X32	Y32	Z32	X33	Y33	Z33	X34	Y34	Z34	X35	Y35	Z35	X36	Y36	Z36	X37	Y37	Z37	X38	Y38	Z38	X39	Y39	Z39	X40	Y40	Z40	X41	Y41	Z41	X42	Y42	Z42	X43	Y43	Z43	X44	Y44	Z44	X45	Y45	Z45	X46	Y46	Z46	X47	Y47	Z47

1	0.00000	-84.38931	-69.55489	27.43640	84.38931	-69.55489	27.43640	-105.22070	-477.73767	21.05561	105.22070	-477.73767	21.05561	-125.58306	-853.08081	53.33512	125.58306	-853.08081	53.33512	-125.58306	-898.46967	-67.21768	125.58306	-898.46967	-67.21768	152.13828	-477.73767	21.05561	-152.13828	-477.73767	21.05561	172.50096	-853.08081	72.10226	-172.50096	-853.08081	72.10226	-129.90051	455.60794	14.05650	-392.10654	443.64041	32.77248	-616.74506	428.11664	48.80694	-698.72693	422.45123	54.65833	129.90051	455.60794	14.05650	392.10654	443.64041	32.77248	616.74506	428.11664	48.80694	698.72693	422.45123	54.65833	0.00000	23.36540	46.13053	0.00000	129.64679	27.15171	0.00000	210.21185	35.78707	0.00000	306.62424	64.44508	0.00000	449.34491	49.83139	-0.00000	0.00000	-0.00000	47.44704	23.36540	46.13053	0.00000	70.81244	46.13053	0.00000	23.36540	93.57758	142.34113	-5.10282	-67.74236	-142.34113	-5.10282	-67.74236	37.95763	-5.10282	74.59875	-37.95763	-5.10282	74.59875	160.30458	-259.34302	27.43640	-160.30458	-259.34302	27.43640	152.13860	-646.64209	21.05561	-152.13860	-702.94354	21.05561	125.58306	-898.46967	-139.83984	-125.58306	-898.46967	-139.83984	125.58306	-918.76587	100.25301	-125.58306	-918.76587	100.25301	-0.00000	-0.00000	-0.00000	-0.00000	0.00000	0.00000	0.00000	-0.00000	-0.00000	0.00000	0.00000	0.00000	-0.00000	-0.00000	-0.00000	-0.00000	0.00000	0.00000
2	0.01667	10.84050	859.09827	-8.88797	179.31032	857.69495	1.21990	-29.72165	452.75909	-27.08225	229.63068	452.91269	-25.37012	-84.13768	80.45441	0.61467	286.60565	81.64047	9.98242	-86.64599	27.79725	-116.91855	299.44846	25.01980	-105.00578	276.41754	456.24405	-24.29852	-76.47426	455.16016	-30.19439	332.62775	88.32310	29.75123	-131.82077	85.82287	16.45756	-35.49816	1356.51318	9.79660	-91.68626	1351.74805	-247.23590	-76.24339	1375.48816	-471.19684	-76.68710	1373.97058	-553.56714	224.15150	1343.18188	10.64203	276.89041	1343.98608	-247.16306	268.70074	1368.22559	-471.45288	255.68570	1381.10168	-551.77832	94.73540	951.34113	14.73625	96.18653	1051.63867	4.45568	95.50890	1123.04260	23.18242	92.84586	1205.09399	68.25671	92.72767	1340.37000	84.57320	-0.00000	0.00000	-0.00000	142.09564	950.94666	17.57777	95.13337	998.78650	14.69014	91.89437	951.41095	62.09810	243.39581	921.52283	-90.37998	-40.76557	923.88971	-107.42911	130.68019	922.60022	45.45424	54.90382	923.23145	40.90780	268.69543	674.03564	-6.66845	-74.21629	673.49084	-18.78140	293.17853	289.55292	-23.08279	-95.69215	232.43294	-31.90252	309.38083	22.73617	-176.90927	-89.79980	21.36587	-189.18658	275.83798	20.84272	61.97764	-77.76366	17.91732	51.25356	-3.05987	4.43145	-2.32997	-1.36109	2.44815	-0.42457	-3.26352	1.67118	0.06816	-1.08988	2.00890	0.30641	5.85098	5.48563	-9.61622	4.27138	5.56090	-8.89072
3	0.03333	11.19655	859.48431	-8.74843	179.68880	858.48834	1.02874	-30.88483	453.33945	-27.80998	231.06650	453.73138	-23.86987	-83.32616	80.81454	0.72237	286.09900	81.98209	9.49004	-86.25642	27.42394	-116.46970	298.69708	25.17334	-105.43245	277.84729	457.20047	-22.98636	-77.63125	455.92017	-30.87107	332.21280	88.42173	29.12527	-131.02184	86.03552	16.57669	-36.39777	1356.76392	7.20549	-92.45366	1351.84521	-249.85295	-76.08861	1375.28711	-473.77975	-76.21191	1374.57397	-556.16199	224.60826	1343.70166	9.76100	277.84930	1343.70728	-247.94209	267.43829	1368.00769	-472.13318	254.69174	1380.84277	-552.50824	94.95238	952.05579	14.07026	96.18745	1051.70312	3.43347	95.45004	1122.50024	22.02961	92.84308	1203.85913	67.13304	92.59616	1338.47388	83.74790	-0.00000	0.00000	-0.00000	142.31892	951.77582	16.81882	95.25452	999.50037	13.69645	92.20618	952.44647	61.43614	243.46161	921.81146	-91.13791	-40.73760	923.49139	-107.62926	131.01660	923.59943	44.91292	55.23014	924.04742	40.51522	269.56830	675.04877	-6.33781	-74.55524	674.21490	-18.97301	293.71481	290.01358	-22.58786	-95.69843	232.65958	-32.11604	308.43500	22.88122	-177.36226	-89.46376	20.51587	-188.69138	275.56644	21.26249	61.62455	-77.43964	18.55629	51.76226	-3.18925	4.46683	-2.42744	-1.86134	2.80392	-0.48810	-2.73291	1.17946	0.12573	-1.30847	1.48033	0.27359	6.18374	5.52021	-9.20761	4.48354	5.56070	-8.15006
4	0.05000	11.62294	859.96039	-8.38139	180.13510	859.29688	1.07585	-30.85203	453.88202	-27.98071	231.04074	454.50970	-24.29742	-82.74147	81.25827	0.26988	285.93918	82.74524	9.11456	-86.76285	27.13320	-116.55236	298.80063	24.85751	-105.23894	277.82758	457.93359	-23.57175	-77.60606	456.50574	-30.88496	332.09412	89.32877	28.60489	-130.39491	86.53160	16.23348	-37.00074	1357.03540	4.57797	-93.18207	1351.84851	-252.44781	-76.09123	1375.17456	-476.33246	-75.66388	1375.12451	-558.71680	224.85190	1344.37305	8.91786	278.65717	1343.35742	-248.66603	266.42340	1367.91797	-472.73669	253.01149	1380.63843	-553.02167	95.25255	952.74219	14.04254	96.28623	1051.88940	3.21390	95.47096	1122.21826	21.68284	92.85365	1203.10522	66.67925	92.40894	1337.24207	83.20428	-0.00000	0.00000	-0.00000	142.62468	952.55566	16.70115	95.46711	1000.18616	13.54803	92.59605	953.24792	61.41246	243.61581	922.50244	-91.37272	-40.61697	923.62158	-107.32443	131.42761	924.43005	44.88809	55.63220	924.72845	40.63430	269.81366	675.77734	-6.73418	-74.31302	674.77783	-18.63411	293.59415	290.75500	-23.09473	-95.38905	233.12274	-32.37333	308.39136	21.96384	-177.16685	-90.20957	19.82961	-188.72409	276.10605	22.47824	61.90672	-77.80944	19.25669	51.72173	-3.37455	4.29285	-2.50613	-2.09111	2.97069	-0.41454	-2.80848	1.20095	0.16411	-1.33128	1.35726	0.22195	6.68099	5.54611	-8.61688	4.88808	5.55784	-7.13771
